<?xml version="1.0" standalone="no"?>
<!DOCTYPE svg PUBLIC "-//W3C//DTD SVG 20010904//EN"
 "http://www.w3.org/TR/2001/REC-SVG-20010904/DTD/svg10.dtd">
<svg version="1.0" xmlns="http://www.w3.org/2000/svg"
 width="80.000000pt" height="80.000000pt" viewBox="0 0 80.000000 80.000000"
 preserveAspectRatio="xMidYMid meet">
<metadata>
Created by potrace 1.14, written by Peter Selinger 2001-2017
</metadata>
<g transform="translate(0.000000,80.000000) scale(0.100000,-0.100000)"
fill="#000000" stroke="none">
<path d="M158 659 c-16 -9 -18 -32 -18 -259 0 -236 1 -250 19 -260 26 -14 456
-14 482 0 18 10 19 24 19 260 0 236 -1 250 -19 260 -26 13 -460 13 -483 -1z
m442 -68 c13 -26 13 -356 0 -382 -10 -18 -23 -19 -200 -19 -177 0 -190 1 -200
19 -6 12 -10 92 -10 191 0 99 4 179 10 191 10 18 23 19 200 19 177 0 190 -1
200 -19z"/>
<path d="M215 577 c-3 -7 -4 -91 -3 -187 l3 -175 185 0 185 0 0 185 0 185
-183 3 c-143 2 -184 0 -187 -11z m133 -74 l31 -58 1 58 c0 54 1 57 25 57 l25
0 0 -110 0 -110 -28 0 c-24 0 -33 8 -56 50 -15 28 -28 50 -29 50 -1 0 0 -22 1
-50 4 -50 4 -50 -27 -50 l-31 0 0 103 c0 57 3 107 7 110 3 4 16 7 28 7 17 0
30 -15 53 -57z"/>
</g>
</svg>
